<?xml version="1.0" standalone="no"?>
<!DOCTYPE svg PUBLIC "-//W3C//DTD SVG 20010904//EN"
 "http://www.w3.org/TR/2001/REC-SVG-20010904/DTD/svg10.dtd">
<svg version="1.0" xmlns="http://www.w3.org/2000/svg"
 width="1024.000000pt" height="1024.000000pt" viewBox="0 0 1024.000000 1024.000000"
 preserveAspectRatio="xMidYMid meet">

<g transform="translate(0.000000,1024.000000) scale(0.100000,-0.100000)"
fill="#003932" stroke="none">
<path d="M4850 8920 c-375 -18 -834 -123 -1235 -281 -250 -99 -604 -290 -820
-443 -535 -379 -1004 -929 -1285 -1511 -188 -388 -302 -781 -357 -1230 -24
-202 -22 -630 5 -858 62 -519 197 -952 435 -1397 227 -425 605 -877 973 -1166
136 -106 404 -281 558 -363 340 -182 787 -342 1147 -410 289 -55 416 -66 769
-66 413 0 608 21 935 100 570 137 1079 382 1550 747 140 108 452 415 581 571
216 263 441 642 564 952 292 732 365 1545 204 2268 -166 744 -532 1398 -1096
1953 -609 602 -1407 993 -2254 1108 -100 14 -174 19 -449 30 -44 1 -145 -1
-225 -4z m213 -724 c83 -34 117 -121 117 -301 0 -142 -20 -237 -74 -350 -41
-84 -84 -143 -235 -325 -152 -182 -188 -256 -203 -405 -11 -119 -21 -145 -71
-175 -59 -36 -140 -20 -190 39 -41 49 -57 119 -57 246 0 232 55 351 281 612
187 214 226 294 236 480 5 93 9 109 32 135 44 54 104 70 164 44z m433 -795
c42 -25 79 -77 93 -126 14 -52 14 -239 0 -307 -29 -137 -107 -272 -266 -462
-159 -190 -200 -275 -210 -436 -5 -88 -3 -106 22 -189 25 -81 27 -96 16 -130
-27 -91 -137 -123 -224 -66 -41 27 -85 101 -119 204 -32 93 -33 101 -32 261 0
152 2 171 27 245 49 146 103 227 330 494 42 51 88 114 102 141 33 64 55 159
55 236 0 48 5 67 22 89 50 63 125 82 184 46z m259 -1281 c153 -17 437 -67 576
-101 585 -142 925 -361 1028 -661 80 -233 28 -704 -126 -1148 -257 -740 -874
-1345 -1582 -1551 -365 -107 -741 -125 -1109 -54 -378 73 -661 197 -954 418
-384 288 -687 721 -860 1227 -79 230 -140 538 -154 780 -15 265 47 447 200
588 192 177 592 341 1054 432 142 28 569 90 620 90 21 0 22 -3 22 -94 0 -74 6
-113 26 -176 14 -45 24 -83 22 -85 -2 -2 -68 -11 -148 -20 -311 -35 -652 -103
-875 -176 -142 -47 -341 -142 -407 -196 -66 -54 -118 -136 -118 -185 0 -153
240 -297 680 -408 404 -101 851 -150 1375 -150 409 0 617 16 955 71 411 68
754 183 915 306 200 153 139 319 -170 469 -264 127 -671 225 -1142 274 -102
11 -187 21 -189 23 -2 1 6 32 18 67 17 50 21 90 22 175 l0 110 110 -7 c61 -4
156 -12 211 -18z m1995 -831 c85 -23 194 -76 262 -126 72 -52 173 -168 212
-243 60 -113 79 -202 74 -349 -7 -213 -67 -349 -218 -501 -70 -71 -103 -95
-187 -138 -137 -70 -379 -131 -480 -120 l-32 3 33 77 c37 83 88 232 109 318
l14 55 59 6 c119 12 220 85 271 196 21 46 24 66 21 126 -2 41 -12 88 -22 109
-29 60 -93 125 -150 153 l-54 26 5 127 c2 79 -1 160 -9 215 -16 102 -22 98 92
66z m-345 -1714 c168 -120 287 -257 320 -369 29 -96 14 -229 -36 -327 -30 -60
-115 -159 -197 -232 -344 -306 -1025 -570 -1732 -671 -297 -43 -419 -51 -740
-50 -323 1 -468 12 -800 60 -940 136 -1793 562 -1937 966 -25 70 -28 187 -7
254 24 79 98 187 175 259 69 64 191 155 208 155 6 0 17 -12 25 -27 28 -55 201
-291 292 -399 110 -131 241 -258 379 -367 55 -44 104 -83 108 -87 5 -4 -72 20
-170 54 -181 63 -374 142 -495 202 -79 40 -82 40 -67 13 24 -46 169 -185 259
-249 288 -206 761 -370 1275 -445 321 -46 377 -50 775 -50 412 0 462 4 775 56
483 81 913 238 1177 429 72 52 246 215 238 224 -3 3 -71 -22 -150 -55 -79 -33
-212 -84 -294 -114 -151 -53 -416 -136 -416 -129 0 2 22 15 48 28 85 43 323
239 452 372 133 137 267 306 370 467 34 53 65 97 68 97 4 0 48 -29 97 -65z"/>
</g>
</svg>
